# xmcd
#
# Track frame offsets: 
#        150
#        12205
#        25881
#        38915
#        52651
#        66213
#        79579
#        93685
#        107149
#        119541
#        132504
#        147296
#        159427
#        171318
#        186142
#        199318
#        214055
#        228167
#
# Disc length: 3246 seconds
#
# Revision: 2
# Processed by: cddbd v1.5.2PL0 Copyright (c) Steve Scherf et al.
# Submitted via: ExactAudioCopy v0.95b2
#
DISCID=f90cac12
DTITLE=Lonnie Johnson - The Essential [CD 1)
DYEAR=1900
DGENRE=Blues
TTITLE0=Mr. Johnson's Blues
TTITLE1=Have To Change Keys To Play These Blues
TTITLE2=Why Woman Go Wrong
TTITLE3=Helena Blues (w Mooch Richardson)
TTITLE4=Playing With The Strings
TTITLE5=Sweet Potato Blues
TTITLE6=What Makes You Act Like That (w Clara Smith)
TTITLE7=I Done Told You
TTITLE8=Southbound Back Water
TTITLE9=Steppin' On The Blues
TTITLE10=West Texas Blues (w Texas Alexander)
TTITLE11=Ash Can Stomp (w Henry Johnson And His Boys)
TTITLE12=Crowing Rooster Blues
TTITLE13=He's A Jelly Roll Baker
TTITLE14=Mean Old Bedbug Blues
TTITLE15=Guitar Blues (w Eddie Lang)
TTITLE16=The Dirty Dozen (w Spencer Williams)
TTITLE17=Broken Levee Blues
EXTD=
EXTT0=
EXTT1=
EXTT2=
EXTT3=
EXTT4=
EXTT5=
EXTT6=
EXTT7=
EXTT8=
EXTT9=
EXTT10=
EXTT11=
EXTT12=
EXTT13=
EXTT14=
EXTT15=
EXTT16=
EXTT17=
PLAYORDER=
